3 is a song by American recording artist Britney Spears, from her second greatest hits compilation The Singles Collection. It was released on September 29, 2009, as the only single of the album by Jive Records. The song was produced by long-time collaborator Max Martin and Shellback, and recorded by Spears in July 2009 while touring Sweden. 3 is an uptempo electropop song that features a heavy bassline and synthesizers. The song's lyrics talk about threesomes, while referencing Peter, Paul & Mary during the chorus as sexual slang. 3 received positive appreciation from contemporary critics, with some reviewers calling it a classic Spears song.

The song also achieved commercial success by topping the charts in the United States and Canada, as well as reaching the top ten in many countries around the world, including Australia, Finland, Norway, Sweden and the United Kingdom. In the United States, 3 debuted at number one in the Billboard Hot 100, becoming the first song to debut at the top position in over three years and the only non-American Idol artist in eleven years to do so. It was also the fifteenth song in history to debut at number one. The accompanying music video was directed by Diane Martel, who described it as sexy and playful. The video features Spears and her dancers in front of different black and white backgrounds. It received positive reviews from critics, who complimented its simplicity.


Video
ID                               : 1
Format                           : AVC
Format/Info                      : Advanced Video Codec
Format profile                   : High@L4.0
Format settings, CABAC           : Yes
Format settings, ReFrames        : 3 frames
Codec ID                         : V_MPEG4/ISO/AVC
Duration                         : 3mn 31s
Bit rate mode                    : Variable
Bit rate                         : 6 144 Kbps
Maximum bit rate                 : 25.0 Mbps
Width                            : 1 920 pixels
Height                           : 1 080 pixels
Display aspect ratio             : 16:9
Frame rate                       : 25.000 fps
Color space                      : YUV
Chroma subsampling               : 4:2:0
Bit depth                        : 8 bits
Scan type                        : Progressive
Bits/(Pixel*Frame)               : 0.119
Stream size                      : 152 MiB (92%)
Writing library                  : x264 core 67 r1169M ab85c9b
Language                         : English

Audio
ID                               : 2
Format                           : AC-3
Format/Info                      : Audio Coding 3
Mode extension                   : CM (complete main)
Codec ID                         : A_AC3
Duration                         : 3mn 31s
Bit rate mode                    : Constant
Bit rate                         : 384 Kbps
Channel(s)                       : 2 channels
Channel positions                : Front: L R
Sampling rate                    : 48.0 KHz
Bit depth                        : 16 bits
Compression mode                 : Lossy
Video delay                      : 490ms
Stream size                      : 9.68 MiB (6%)
Language                         : English

Screens:
[link]http://s830.photobucket.com/albums/zz221/ankur1402/Britney%20Spears%20-%203/[/link]
